<svg width="19" height="18" viewBox="0 0 19 18" fill="none" xmlns="http://www.w3.org/2000/svg">
<path d="M13.25 9C13.25 9.621 12.7467 10.125 12.125 10.125H10.625V11.625C10.625 12.246 10.1217 12.75 9.5 12.75C8.87825 12.75 8.375 12.246 8.375 11.625V10.125H6.875C6.25325 10.125 5.75 9.621 5.75 9C5.75 8.379 6.25325 7.875 6.875 7.875H8.375V6.375C8.375 5.754 8.87825 5.25 9.5 5.25C10.1217 5.25 10.625 5.754 10.625 6.375V7.875H12.125C12.7467 7.875 13.25 8.379 13.25 9ZM18.5 4.125V13.875C18.5 16.149 16.6497 18 14.375 18H4.625C2.35025 18 0.5 16.149 0.5 13.875V4.125C0.5 1.851 2.35025 0 4.625 0H14.375C16.6497 0 18.5 1.851 18.5 4.125ZM16.25 4.125C16.25 3.09075 15.4085 2.25 14.375 2.25H4.625C3.5915 2.25 2.75 3.09075 2.75 4.125V13.875C2.75 14.9093 3.5915 15.75 4.625 15.75H14.375C15.4085 15.75 16.25 14.9093 16.25 13.875V4.125Z" fill="black"/>
</svg>
