<svg width="22" height="22" viewBox="0 0 22 22" fill="none" xmlns="http://www.w3.org/2000/svg">
<g clip-path="url(#clip0_1791_7833)">
<path d="M12.6906 15.8265L9.70043 18.8166C8.83228 19.6616 7.66636 20.1307 6.45493 20.1226C5.24349 20.1145 4.08397 19.6298 3.22721 18.7732C2.37046 17.9167 1.88538 16.7573 1.87692 15.5459C1.86846 14.3345 2.33731 13.1684 3.18201 12.3L6.17218 9.30712C6.34406 9.13512 6.44058 8.90188 6.44049 8.65872C6.44041 8.41555 6.34373 8.18238 6.17172 8.0105C5.99972 7.83862 5.76648 7.7421 5.52331 7.74219C5.28015 7.74227 5.04698 7.83895 4.8751 8.01096L1.88585 11.0039C0.67793 12.2124 -0.000429579 13.8513 2.04097e-07 15.56C0.000429988 17.2686 0.679614 18.9072 1.88814 20.1151C3.09666 21.323 4.73554 22.0014 6.44422 22.0009C8.1529 22.0005 9.79143 21.3213 10.9993 20.1128L13.9895 17.1226C14.1565 16.9497 14.2489 16.7182 14.2468 16.4778C14.2447 16.2375 14.1483 16.0076 13.9783 15.8376C13.8084 15.6677 13.5785 15.5713 13.3381 15.5692C13.0978 15.5671 12.8662 15.6595 12.6933 15.8265H12.6906Z" fill="#121212"/>
<path d="M20.1146 1.88927C19.5181 1.28869 18.8084 0.812445 18.0265 0.488144C17.2446 0.163843 16.4062 -0.00206842 15.5597 2.25874e-05C14.7137 -0.00222483 13.8756 0.163261 13.0939 0.486911C12.3123 0.810562 11.6025 1.28596 11.0057 1.88561L8.01096 4.87669C7.83895 5.04857 7.74227 5.28174 7.74219 5.52491C7.7421 5.76807 7.83862 6.00131 8.0105 6.17332C8.18238 6.34532 8.41555 6.442 8.65872 6.44208C8.90188 6.44217 9.13512 6.34566 9.30712 6.17377L12.3 3.18361C12.7268 2.75428 13.2345 2.41388 13.7937 2.18211C14.3529 1.95034 14.9525 1.8318 15.5579 1.83336C16.4693 1.83366 17.3601 2.10417 18.1178 2.61069C18.8755 3.11721 19.466 3.837 19.8147 4.67907C20.1634 5.52115 20.2546 6.44769 20.0768 7.34158C19.899 8.23548 19.4601 9.05658 18.8157 9.70111L15.8255 12.6913C15.6535 12.8633 15.5569 13.0966 15.5569 13.3398C15.5569 13.5831 15.6535 13.8164 15.8255 13.9884C15.9975 14.1604 16.2308 14.257 16.4741 14.257C16.7173 14.257 16.9506 14.1604 17.1226 13.9884L20.1128 11C21.3192 9.79103 21.9968 8.15295 21.9972 6.44503C21.9975 4.7371 21.3205 3.09875 20.1146 1.88927Z" fill="#121212"/>
<path d="M13.1002 7.60107L7.60016 13.1011C7.51261 13.1856 7.44277 13.2868 7.39473 13.3986C7.34669 13.5105 7.3214 13.6307 7.32035 13.7525C7.31929 13.8742 7.34248 13.9949 7.38857 14.1075C7.43466 14.2202 7.50273 14.3225 7.5888 14.4086C7.67487 14.4947 7.77721 14.5627 7.88987 14.6088C8.00252 14.6549 8.12323 14.6781 8.24494 14.677C8.36666 14.676 8.48694 14.6507 8.59878 14.6027C8.71062 14.5546 8.81177 14.4848 8.89633 14.3972L14.3963 8.89724C14.5633 8.72435 14.6557 8.4928 14.6536 8.25245C14.6515 8.0121 14.5551 7.78219 14.3852 7.61224C14.2152 7.44228 13.9853 7.34587 13.7449 7.34378C13.5046 7.3417 13.273 7.43409 13.1002 7.60107Z" fill="#121212"/>
</g>
<defs>
<clipPath id="clip0_1791_7833">
<rect width="22" height="22" fill="white"/>
</clipPath>
</defs>
</svg>
