<svg width="370" height="136" viewBox="0 0 370 136" fill="none" xmlns="http://www.w3.org/2000/svg">
<g clip-path="url(#clip0_1791_7820)">
<path fill-rule="evenodd" clip-rule="evenodd" d="M106.881 54.1705C109.176 50.2611 110.982 46.1075 112.175 41.8044C118.577 18.714 104.999 0 81.8492 0C81.6622 0 81.4726 0.0093484 81.286 0.0120743L81.2892 0H61.2389C55.1615 0 50.0636 3.79024 48.4844 9.48825L42.1742 32.4871H71.3557L71.3526 32.4902C71.4017 32.4902 71.4476 32.4871 71.4967 32.4871C77.363 32.4871 80.8024 37.2295 79.1804 43.077C77.5558 48.9273 71.4905 53.667 65.6242 53.667C65.5751 53.667 65.5292 53.6638 65.4836 53.6638V53.667H36.299L42.1715 32.4871H24.3491C18.2687 32.4871 13.1736 36.2805 11.5945 41.9753L-0.015625 83.6088H77.8311H77.828C77.877 83.6088 77.9261 83.6088 77.9717 83.6088C83.8379 83.6088 87.2777 88.348 85.6558 94.1956C84.0338 100.046 77.9658 104.786 72.0995 104.786C72.0536 104.786 72.0076 104.782 71.9586 104.782V104.786H32.1831C26.1057 104.786 21.0075 108.579 19.4284 114.277L13.4061 136H71.5302L71.5333 135.988C71.7198 135.991 71.9005 136 72.0902 136C95.2403 136 119.195 117.286 125.597 94.1956C130.832 75.3075 122.693 59.3525 106.881 54.1705Z" fill="#49F8AE"/>
<path fill-rule="evenodd" clip-rule="evenodd" d="M234.037 109.372C233.102 114.723 228.482 118.621 223.077 118.621H221.131L221.14 118.574C215.603 118.335 213.742 114.95 214.781 108.97C215.031 107.517 215.518 101.252 223.181 101.252H235.455C234.963 104.051 234.477 106.859 234.037 109.372ZM258.863 79.4675C261.315 65.4062 256.345 57.6875 242.224 57.6875H214.904C209.565 57.6875 204.978 61.491 203.967 66.761L202.191 76.0655H234.637C236.853 76.0655 238.398 77.7108 238.317 79.8565C238.313 80.0613 238.114 81.5189 238.025 81.8523C237.571 83.6004 235.984 84.8909 234.103 84.8909H216.77C206.626 84.8909 198.128 91.2077 196.366 101.252L194.117 114.21C191.683 128.272 196.639 135.99 210.765 135.99H229.955C247.204 135.99 250.629 126.788 252.528 115.873L255.84 96.8368C255.84 96.8368 257.725 86.0066 258.863 79.4675Z" fill="#49F8AE"/>
<path fill-rule="evenodd" clip-rule="evenodd" d="M163.399 76.0655H163.465H192.66L194.354 66.7996C195.213 61.7904 191.758 57.6875 186.676 57.6875H160.357C136.952 57.6875 134.831 76.2021 137.403 85.1047C137.892 86.81 139.809 89.3529 140.715 90.1777L158.331 110.266C161.89 114.121 161.828 117.912 156.618 117.912H135.927C132.653 117.912 129.858 120.271 129.307 123.502L127.172 135.99H165.013C175.486 135.99 181.987 131.075 185.998 123.224C186.871 121.519 189.153 112.445 183.909 106.735L161.363 82.177C159.076 80.1256 160.329 76.1079 163.399 76.0655Z" fill="#49F8AE"/>
<path fill-rule="evenodd" clip-rule="evenodd" d="M348.692 84.7056C348.437 86.1585 347.955 92.4239 340.292 92.4239H328.017C328.504 89.6247 328.996 86.817 329.435 84.3041C330.366 78.953 334.991 75.0557 340.391 75.0557H342.342L342.333 75.1024C347.87 75.3462 349.731 78.7311 348.692 84.7056ZM352.708 57.6875H333.522C316.268 57.6875 312.843 66.893 310.943 77.7996L307.632 96.8388C307.632 96.8388 305.742 107.673 304.608 114.207C302.156 128.268 307.126 135.99 321.248 135.99H348.57C353.908 135.99 358.496 132.178 359.507 126.913L361.278 117.613H328.835C326.619 117.613 325.074 115.964 325.155 113.818C325.159 113.617 325.358 112.156 325.443 111.827C325.901 110.074 327.489 108.784 329.369 108.784H346.698C356.847 108.784 365.346 102.467 367.113 92.4243L369.353 79.4663C371.791 65.4058 366.834 57.6875 352.708 57.6875Z" fill="#49F8AE"/>
<path fill-rule="evenodd" clip-rule="evenodd" d="M298.89 60.1201L300.574 51.4387H310.016L313.418 30.2188H313.272H312.185H305.502H305.468C292.91 30.2188 282.168 39.3168 280.002 51.7822L278.771 59.9826C273.604 59.9826 269.184 63.7238 268.297 68.8529L266.852 76.9715H275.791L265.539 135.997H276.302C281.725 135.997 286.367 132.066 287.3 126.683L296.005 74.1782L298.89 60.1201Z" fill="#49F8AE"/>
<mask id="mask0_1791_7820" style="mask-type:alpha" maskUnits="userSpaceOnUse" x="247" y="0" width="62" height="106">
<path fill-rule="evenodd" clip-rule="evenodd" d="M274.766 75.8764L273.082 84.5578H263.64L260.239 105.778H260.383H261.47H268.154H268.188C280.746 105.778 291.488 96.6797 293.654 84.214L294.885 76.0139C300.052 76.0139 304.472 72.2723 305.359 67.1437L306.804 59.025H297.865L308.117 0H297.353C291.932 0 287.289 3.93043 286.356 9.31262L277.651 59.4417H261.151L254.541 67.1437L247.672 75.8764H274.766Z" fill="#1CF593"/>
</mask>
<g mask="url(#mask0_1791_7820)">
<path d="M297.818 59.0625L295.07 76.2341L306.06 79.6688L307.434 59.0625H297.818Z" fill="#49F8AE"/>
</g>
</g>
<defs>
<clipPath id="clip0_1791_7820">
<rect width="369.953" height="136" fill="white"/>
</clipPath>
</defs>
</svg>
